<?xml version="1.0" encoding="UTF-8"?>
<svg id="Layer_1" xmlns="http://www.w3.org/2000/svg" version="1.1" viewBox="0 0 240 226">
  <!-- Generator: Adobe Illustrator 30.1.0, SVG Export Plug-In . SVG Version: 2.1.1 Build 136)  -->
  <defs>
    
  </defs>
  <path fill="#d88b0f" class="st4" d="M215.8,172.9"/>
  <path fill="#ffa401" class="st2" d="M77.3,57.7l-9.1-12-3.2-18.3-2.4-15.5-11.1-8-13.1,3.3-4.8,17.6,4.3,18.6,3.7,9.1,7.4,6.8,5.6,3.8,6.5,3.2,4.9,1.9-1,3.9-32.3,45.6-9.8,17-5.4,15.5,2.9,5.5,6.6-.5,2,2.1-6.4,20.3,2.8,10.1,4,3.5,8.4,6,7,4,5.7.9,4.1,6.7,7.4,8.4,7.3,3.9,7.4,2,9.7-.9s10.5-2.4,10.7-2.5,8.2-4.7,8.2-4.7l2.7-4,9.3-1.8,10.1,1,9,1.5,8.1,6.2,21.2,2.8,11.7-5.9,6-4.1,3.6-6.2,4.1-3.7,11.7-3.5,13.3-10.8,3.1-10-2.4-8.7-3.2-8.5,1.2-4,7,1.2,2.2-4.2-6.5-17.7-19.5-31.7-18.9-26.2-5.3-5.3,2.2-3.5,11.3-4.5,10.6-8.2,6.1-12,2.7-12.8-.9-13.1-4.6-10.8-8-3.7-11.8,3.2-5.5,8.3-1.5,13.8-1.3,13-6,13.6-4,2.9-8.8-.3-13.4-2.9-17.6-1.7-22.6,1.3-18.3,5.1-5.2-1.4"/>
  <polyline fill="#e56467" class="st7" points="108.8 154.1 108.9 160.2 113.3 169 116.6 172.2 121.7 173.1 127.4 170.8 130 166.9 131.5 159.2 133.3 156.3 130 152.8 122.5 147.8 117.7 147.8 115.3 151.5 108.8 154.1"/>
  <ellipse fill="#a585db" class="st3" cx="119.7" cy="118.6" rx="32.9" ry="15.2"/>
  <path fill="#ffc25f" class="st1" d="M84.3,58.3s64.2,5.7,69.2,2.2-13.6-5.3-13.6-5.3l-40.1-.4-16.3,2.9"/>
  <path fill="#ffc25f" class="st1" d="M180,8.2s16-6.3,17.1,8.9c.7,9.2,2.4,18.3,5.2,27.1l1.7-14.4.9-8.8-1.9-8-5.3-7.8-9.6-1.8-8,4.8h0Z"/>
  <path fill="#ffc25f" class="st1" d="M37.9,9.1s16.7,0,17.2,24c.5,24,16.9,20.9,16.9,20.9l-4.5-7.9-1.7-9-1-12-1.1-7.6-1.3-7-4.3-4-9.2-3.4-7.2,2.5"/>
  <path fill="#ffc25f" class="st1" d="M201.6,109.5s13.3,44.2,17.5,45.7,2.7-4.2,2.7-4.2l-2.9-9.9"/>
  <path fill="#ffc25f" class="st1" d="M163.8,175.1s22.9,12.9,23.3,22.6-3.8-17.1-3.8-17.1l-6.6-5.5-4.1-.9h-7.5"/>
  <path fill="#ffc25f" class="st1" d="M83.3,180.5s9.2.7,10.2,7.9,16.5,8,17.2,13,1.2-6.7,1.2-6.7l-4.3-5.4-4.7-3.1-5.4,3-2.5-6.4-1.7-3.9-10.2,1.6h.2Z"/>
  <path fill="#d88b0f" class="st4" d="M52.7,189.6s9.4,29.3,31.5,30.9-14.9,1.4-14.9,1.4l-11.5-8.6s-4.8-5.7-5.1-6.1-5.1-6.2-5.1-6.2l-11.1-4.2-11.6-8.8"/>
  <polyline fill="#d88b0f" class="st4" points="125.5 199.7 110.1 206.1 110.1 209.9 126.7 209.8 128.5 206.2 124.8 199.7"/>
  <polyline fill="#d88b0f" class="st4" points="187.6 190.7 206 191.6 198.3 200.2 187.1 200.9 188.2 192.3"/>
  <path fill="#d88b0f" class="st4" d="M126.5,195.8s22.1,22.6,32,23.6-12.8-1.1-12.8-1.1l-6.6-3.9-7.7-5-5-4.5-3.2-7.3"/>
  <path fill="#d88b0f" class="st4" d="M102.4,157.3s5.5,18.3,11.7,18.6,5.4-2.6,5.4-2.6l-8.6-6.7-3-6.7-1.8-3.6-5.3.3"/>
  <path fill="#d88b0f" class="st4" d="M170,48.1s8.6,12.5,1.9,12.6-10.4-4.9-10.2-5,3.8-2.2,3.8-2.2l2.9-2.9,1.2-3.7"/>
  <path fill="#d88b0f" class="st4" d="M33.6,24.8s16,31.1,25,33.6,6,9.2,6,9.2l-11.3-4-7.7-4.9-6.2-6.9-5.2-12.7-.5-9.3v-5h0Z"/>
  <path fill="#d88b0f" class="st4" d="M51.6,88.8s-24.8,55.3-23.3,64-2.6,1.9-2.6,1.9l-4.5,1.5-5-5.2,1.3-6.9,6-13.1,14.7-23.7"/>
  <path fill="#d88b0f" class="st4" d="M28.7,154.7s-.1,28,6.9,30c7,2,18.2,2.2,18.2,2.2l-7.3,8.8s-8.7-4-9.5-4.2-9.7-3.7-9.7-3.7l-5.3-4.4-.7-3.2"/>
  <path fill="#f4e977" class="st5" d="M40.3,173.6c-.6,0-1.2-.1-1.7-.4-2-1-2.8-3.4-1.9-5.3l4.8-9.9c1-2,3.4-2.8,5.3-1.9,2,1,2.8,3.4,1.9,5.3l-4.8,9.9c-.7,1.4-2.1,2.3-3.6,2.3ZM55.1,173.3l4.8-9.9c1-2,.1-4.4-1.9-5.3s-4.4-.1-5.3,1.9l-4.8,9.9c-1,2-.1,4.4,1.9,5.3.6.3,1.2.4,1.7.4,1.5,0,2.9-.8,3.6-2.3ZM188,176.5c2-1,2.8-3.4,1.8-5.4l-7.1-14.5c-1-2-3.4-2.8-5.4-1.8-2,1-2.8,3.4-1.8,5.4l7.1,14.5c.7,1.4,2.1,2.2,3.6,2.2s1.2-.1,1.8-.4ZM200.1,173.7c2-1,2.8-3.4,1.8-5.4l-7.1-14.5c-1-2-3.4-2.8-5.4-1.8-2,1-2.8,3.4-1.8,5.4l7.1,14.5c.7,1.4,2.1,2.2,3.6,2.2s1.2-.1,1.8-.4Z"/>
  <ellipse fill="#fff" class="st6" cx="76.9" cy="108.1" rx="27.2" ry="23" transform="translate(-48 152.9) rotate(-74.3)"/>
  <ellipse fill="#fff" class="st6" cx="160.3" cy="107" rx="22.9" ry="27.1" transform="translate(-23 47.4) rotate(-15.7)"/>
  <path fill="#232323" class="st0" d="M101.4,115c2.1-7.6,1.6-15.4-1.4-22.1-3.1-6.8-8.5-11.6-15.1-13.4-6.6-1.9-13.7-.6-19.9,3.6-6.1,4.1-10.6,10.5-12.7,18.1-4.4,15.8,3,31.7,16.5,35.5,2,.6,4,.8,6,.8,4.7,0,9.5-1.5,13.8-4.4,6.1-4.1,10.6-10.5,12.7-18.1ZM70.2,131.9c-10.9-3.1-16.7-16.2-13.1-29.3,1.8-6.4,5.6-11.9,10.7-15.3,3.5-2.4,7.3-3.6,11.1-3.6s3.1.2,4.7.6c1.9.5,3.7,1.4,5.3,2.5-.3,0-.7,0-1,0-6,0-10.9,8.1-10.9,18.1s4.9,18.1,10.9,18.1,4.7-1.4,6.6-3.7c-2.1,3.9-4.9,7.3-8.4,9.7-5,3.4-10.5,4.4-15.7,2.9ZM152.3,78.5c-6.6,1.9-12,6.6-15,13.4-3,6.6-3.5,14.4-1.4,22,3.8,13.4,14.9,22.4,26.5,22.4s4-.3,6-.8c13.5-3.8,20.9-19.7,16.4-35.4-2.1-7.5-6.6-13.9-12.6-18-6.2-4.2-13.2-5.5-19.8-3.6ZM179.9,101.5c3.7,13.1-2.2,26.2-13,29.2-8.9,2.5-18.4-2.5-23.5-11.6,1.9,2.4,4.2,3.9,6.7,3.9,6,0,10.9-8.1,10.9-18.1s-4.9-18.1-10.9-18.1-3.5.7-5,2.1c2.3-2.7,5.2-4.6,8.6-5.5,1.5-.4,3.1-.6,4.6-.6,3.7,0,7.5,1.2,11,3.6,5.1,3.4,8.8,8.8,10.6,15.2ZM127.1,92.3c-3.6-7.1-3.2-11.7-3.2-12.2.2-1.4,1.4-2.4,2.8-2.2,1.4.2,2.3,1.4,2.2,2.8,0,.1-.3,3.7,2.6,9.4.6,1.2.1,2.7-1.1,3.4-.4.2-.8.3-1.1.3-.9,0-1.8-.5-2.2-1.4ZM139,67.6c-.2-1.4.8-2.6,2.2-2.8,8.3-1,17.9,7.2,18.9,8.1,1,.9,1.1,2.5.2,3.5-.5.6-1.2.9-1.9.9s-1.2-.2-1.6-.6c-2.4-2.1-9.9-7.5-15.1-6.9-1.4.2-2.6-.8-2.8-2.2ZM106.6,90.1c2.9-5.7,2.6-9.4,2.6-9.4-.1-1.4.9-2.6,2.2-2.7,1.4-.1,2.6.8,2.7,2.2,0,.5.5,5.2-3.2,12.2-.4.9-1.3,1.4-2.2,1.4s-.8,0-1.1-.3c-1.2-.6-1.7-2.1-1.1-3.4ZM116.5,91.7v-11.9c0-1.4,1.1-2.5,2.5-2.5s2.5,1.1,2.5,2.5v11.9c0,1.4-1.1,2.5-2.5,2.5s-2.5-1.1-2.5-2.5ZM151,142.7c-1.9.4-6.1-1.6-8.4-3.1-1.2-.7-2.7-.4-3.5.7-.8,1.2-.4,2.7.7,3.5.5.3,1.9,1.2,3.7,2-.7,3.4-2.3,7.9-4.5,8-1.2,0-2.7-.2-4.3-.7-.3-.2-.6-.3-.9-.4-.1,0-.3,0-.4,0-4.5-1.8-9.4-5.2-10.6-8.9,4.1-1,7.1-3.8,7.1-7.1s0-.4,0-.5c6-1.6,10-4.6,10-8.1,0-5.2-9.2-9.4-20.7-9.4s-20.7,4.2-20.7,9.4,2.9,5.5,7.4,7.2c.9.3,1.9.6,2.8.9,0,.2,0,.4,0,.5,0,3.7,3.8,6.8,8.7,7.4-1.2,2.3-6.2,6.2-10.5,8.1-.1,0-.2,0-.3,0-.4,0-.8.3-1.1.5-1.2.4-2.2.7-3.1.7-1.7,0-3.9-3.8-5.2-7.8.8-.7,1.6-1.5,2.4-2.4.9-1.1.8-2.6-.3-3.5-1.1-.9-2.6-.8-3.5.3-3.5,4.1-6.6,4-6.8,4-1.4-.1-2.5.9-2.7,2.3-.1,1.4.9,2.6,2.3,2.7,0,0,.2,0,.5,0,.7,0,2.1-.1,3.8-.8,1.4,4,4.5,10.1,9.6,10.1s1.9-.2,3-.5c1.7,5.7,6.2,17.8,14.6,17.8s.1,0,.2,0c8.5-.2,13-12,14.7-17.5,1.4.3,2.7.5,3.8.5s.2,0,.4,0c5.8-.2,8.2-7.2,9.1-11.3.7.1,1.5.2,2.2.2s1,0,1.5-.2c1.4-.3,2.2-1.6,1.9-3-.3-1.4-1.6-2.2-3-1.9ZM120.2,170.8s0,0,0,0c-4.5,0-8.3-8.8-9.9-14.6,1.6-.8,3.1-1.7,4.4-2.6,1.6-1.1,3.7-2.7,5.4-4.6,1.5,2.1,3.6,4,6.4,5.7,1.2.8,2.5,1.4,3.8,2-1.6,5.1-5.2,14-10,14.1ZM201.6,104.9c-9.9-14.7-20.5-28.7-25.5-35.1,12.2-2.3,23.5-13.7,28.5-24.5,2.2-4.8,3.6-11.8,3.6-18.6,0-7.8-1.7-14.6-4.8-19.2-3.3-4.8-8.2-7.2-14.2-6.8-16.4,1.1-17.6,16.3-18.7,29.7-.3,3.9-.6,7.9-1.3,11.5-2.3,11.8-9.2,13.7-11,14-5.1-1.7-40.7-13-78.5,0-1.8-.3-8.7-2.2-11-14-.7-3.6-1-7.6-1.3-11.5-1-13.3-2.2-28.4-18.6-29.6-5.9-.4-10.8,1.9-14.2,6.8-3.1,4.5-4.8,11.3-4.8,19.2,0,6.8,1.4,13.8,3.6,18.6,5,10.9,16.3,22.2,28.5,24.5-4.9,6.4-15.6,20.4-25.5,35.1-25.1,37.2-24.3,46.6-21.4,50.5,2.2,3,6.2,3,9.7,2.2-1.9,4.9-4.7,12.6-5.9,19-1,4.9.7,9.9,4.3,13.2,7,6.3,17.1,13.7,26.1,14.3,0,.4.2.8.3,1.1,3.8,13.3,18.4,19.7,27.6,19.9.3,0,.6,0,.9,0,8.5,0,23.9-2.9,32.3-13.3l18.9-.6c8.6,9.2,22.9,11.8,31,11.8s.6,0,.9,0c4.9-.1,10.7-1.9,15.5-4.9,4.2-2.5,9.5-6.9,11.8-14.1,9.1-.4,19.3-7.9,26.5-14.3,3.6-3.3,5.2-8.3,4.3-13.1-1.3-6.4-4-14.1-5.9-19,3.4.7,7.4.8,9.7-2.2,2.8-3.8,3.7-13.3-21.4-50.5ZM109,204.6c-6.3,13.2-25,15.6-31.7,15.5-12.6-.3-21.1-9.9-23-16.3-1.8-6.5.2-15.4,4.9-21.2,1.6-1.9,4.7-5.1,8.9-5.1s.3,0,.5,0c3.1.2,5.3,1.1,6.7,2.6,1.5,1.8,1.6,4,1.6,4.6,0,0,0,.2,0,.3h0c0,1.4,1,2.5,2.4,2.6,1.2,0,2.2-.7,2.5-1.8.7-1.3,3.7-6.6,8.1-6.1,4.5.5,4.7,9.3,4.7,9.4,0,1.1.8,2.1,1.9,2.4,1.1.3,2.3-.2,2.8-1.2,1.4-2.6,4.8-1.1,5.5-.7,3.7,1.9,7.9,7.4,4.2,15ZM184,201.7c-1.8,6.4-10.3,15.9-23,16.3-4,0-10.4-.6-16.4-2.8-7.4-2.7-12.6-7-15.2-12.6-3.6-7.6.5-13.2,4.2-15.1.4-.2,1.6-.8,2.9-.8s2,.4,2.6,1.5c.5,1,1.7,1.5,2.8,1.2,1.1-.3,1.9-1.3,1.9-2.4,0,0,.2-8.9,4.7-9.4,4.1-.5,7,4.1,7.9,5.8.1.9.8,1.7,1.6,2,.9.3,1.9.1,2.6-.6h0c.7-.8.9-1.7.6-2.6,0-.9.3-2.7,1.6-4.1,1.4-1.6,3.6-2.5,6.7-2.6,4.4-.2,7.7,3,9.3,5,4.7,5.8,6.8,14.8,5,21.3ZM219,152.4c-.7.9-3.4,1.1-9-1.1-.9-.4-2-.1-2.7.6-.7.7-.9,1.8-.5,2.7,0,.1,5.7,13.4,7.6,23,.6,3.2-.4,6.3-2.7,8.5-8.4,7.5-16.3,12.2-22.1,12.9.6-7.3-1.8-15.8-6.6-21.7-3.8-4.7-8.6-7.2-13.5-6.9-4.5.3-7.9,1.8-10.2,4.4-.5.6-1,1.3-1.3,1.9-2.2-2.4-5.6-4.7-9.9-4.2-5.2.6-7.6,5.2-8.6,9.6-2.3-.9-5.2-.6-8,.8-6.5,3.3-11,12-6.5,21.7.3.6.6,1.1.9,1.6l-12.1.4c4.5-9.5,0-18.2-6.5-21.6-2.8-1.4-5.7-1.7-8-.8-1-4.4-3.4-9-8.6-9.6-4.4-.5-7.7,1.8-10,4.2-.4-.7-.8-1.4-1.4-2-2.3-2.7-5.7-4.2-10.2-4.4-4.9-.3-9.7,2.2-13.6,6.9-4.3,5.4-6.7,12.8-6.6,19.5-5.9-.8-13.6-5.3-22.2-12.9-2.3-2.1-3.4-5.3-2.7-8.5,1.9-9.6,7.6-22.9,7.6-23,.4-.9.2-2-.5-2.7-.7-.7-1.8-1-2.7-.6-5.6,2.2-8.4,2-9,1.1-3.7-5,14.2-38.3,49.6-83.1.6-.8.7-1.8.3-2.7-.4-.9-1.3-1.4-2.3-1.4-11.4.2-23.6-11.1-28.7-22.1-4.1-8.8-4.6-25,.8-32.8,2.3-3.4,5.5-4.9,9.7-4.6,11.2.8,12.8,10,13.9,25,.3,4.1.6,8.3,1.4,12.1,3.3,17.3,15.5,18.1,16,18.1.3,0,.6,0,.9-.1,38.3-13.4,75.8-.1,76.2,0,.3.1.6.2,1,.1.5,0,12.7-.8,16-18.1.7-3.8,1.1-8,1.4-12,1.2-15.1,2.8-24.3,14-25.1,4.2-.3,7.4,1.2,9.7,4.6,5.4,7.8,4.8,24.1.8,32.8-5.1,11-17.2,22.2-28.7,22.1-1,0-1.9.5-2.3,1.4s-.3,1.9.3,2.7c35.5,44.9,53.4,78.1,49.6,83.1ZM73,77.8c-.9-1-.8-2.6.2-3.5,1.1-.9,10.7-9.1,18.9-8.1,1.4.2,2.3,1.4,2.2,2.8-.2,1.4-1.4,2.3-2.8,2.2-5.1-.6-12.6,4.8-15.1,6.9-.5.4-1.1.6-1.6.6s-1.4-.3-1.9-.9Z"/>
</svg>