<svg width="31" height="31" viewBox="0 0 31 31" fill="none" xmlns="http://www.w3.org/2000/svg">
<path d="M0 16.4204V13.8277C0 7.30928 0 4.05005 2.01035 2.02503C4.0207 0 7.25631 0 13.7275 0H16.3015C22.7727 0 26.0083 0 28.0186 2.02503C30.029 4.05005 30.029 7.30928 30.029 13.8277V16.4204C30.029 22.9389 30.029 26.1981 28.0186 28.2231C26.0083 30.2482 22.7727 30.2482 16.3015 30.2482H13.7275C7.25632 30.2482 4.0207 30.2482 2.01035 28.2231C0 26.1981 0 22.9389 0 16.4204Z" fill="#FA0014"/>
<path d="M18.2322 10.8029C18.3672 10.8029 18.4967 10.7404 18.5666 10.6241C18.7626 10.298 18.8753 9.91572 18.8753 9.50656C18.8753 8.31317 17.915 7.34598 16.7303 7.34598C15.5457 7.34598 14.5854 8.31317 14.5854 9.50656C14.5854 9.91572 14.6982 10.298 14.8942 10.6241C14.9641 10.7404 15.0936 10.8029 15.2285 10.8029H18.2322Z" fill="white"/>
<path d="M16.2328 6.7484C16.2594 6.86228 16.1809 6.97036 16.0686 7.00036C14.9678 7.29455 14.1565 8.30512 14.1565 9.50656C14.1565 9.56785 14.1586 9.62864 14.1628 9.68887C14.1708 9.8056 14.0946 9.91517 13.979 9.92646C13.8963 9.93454 13.8124 9.93868 13.7275 9.93868C12.306 9.93868 11.1536 8.77788 11.1536 7.34598C11.1536 5.91407 12.306 4.75327 13.7275 4.75327C14.9449 4.75327 15.9649 5.60457 16.2328 6.7484Z" fill="white"/>
<path d="M10.0388 13.1668C10.1758 13.078 10.2443 13.0336 10.3627 12.9986C10.4812 12.9635 10.5911 12.9635 10.811 12.9635H13.6202C13.6794 12.9635 13.7274 12.9151 13.7274 12.8555C13.7274 12.7958 13.6794 12.7474 13.6202 12.7474H11.1772C11.0932 12.7474 11.0511 12.7474 11.0065 12.7254C10.9618 12.7034 10.9426 12.6784 10.9041 12.6285C10.7916 12.4822 10.7245 12.2986 10.7245 12.0993C10.7245 11.622 11.1087 11.235 11.5825 11.235H18.4463C18.9201 11.235 19.3043 11.622 19.3043 12.0993C19.3043 12.3599 19.1898 12.5935 19.0087 12.752C19.4848 12.8681 19.867 13.0454 20.1945 13.3161C20.3682 13.4597 20.5276 13.6202 20.6702 13.7953C21.4492 14.7514 21.4492 16.172 21.4492 19.0131C21.4492 21.8543 21.4492 23.2749 20.6702 24.231C20.5276 24.4061 20.3682 24.5666 20.1945 24.7102C19.2452 25.4949 17.835 25.4949 15.0144 25.4949C12.1938 25.4949 10.7835 25.4949 9.83431 24.7102C9.66054 24.5666 9.5012 24.4061 9.35859 24.231C8.57959 23.2749 8.57959 21.8543 8.57959 19.0131C8.57959 16.172 8.57959 14.7514 9.35859 13.7953C9.5012 13.6202 9.66054 13.4597 9.83431 13.3161C9.90042 13.2614 9.96827 13.2125 10.0388 13.1668Z" fill="white"/>
<path d="M15.1871 16.1539C15.0961 16.2375 14.953 16.2375 14.8621 16.1539C12.8112 14.2671 10.3067 17.2606 12.33 19.4098L14.4273 21.4554C14.7602 21.7801 15.2888 21.7799 15.6215 21.4549L17.7099 19.4148C19.7131 17.2856 17.2106 14.2951 15.1871 16.1539Z" fill="#FA0014"/>
</svg>
